<svg width="60" height="60" viewBox="0 0 60 60" fill="none" xmlns="http://www.w3.org/2000/svg">
<circle cx="30" cy="30" r="30" fill="url(#paint0_linear_202_4)"/>
<path d="M21.65 47.3C19.6167 47.3 18.0667 46.8167 17 45.85C15.9667 44.9167 15.45 43.6167 15.45 41.95C15.45 41.4833 15.5 40.9833 15.6 40.45C15.8333 38.9833 16.4333 37.6 17.4 36.3C18.3667 34.9667 19.55 33.7667 20.95 32.7C22.3833 31.6333 23.8833 30.7833 25.45 30.15C27.05 29.5167 28.5667 29.1833 30 29.15C29.9667 28.9833 29.9333 28.8 29.9 28.6C29.9 28.4 29.9 28.2167 29.9 28.05C27.9333 27.8833 26.1167 27.5 24.45 26.9C22.8167 26.3 21.5 25.5167 20.5 24.55C19.5333 23.55 19.05 22.3667 19.05 21C19.05 20.3333 19.1667 19.7 19.4 19.1C19.8667 17.8333 20.6167 16.9833 21.65 16.55C22.7167 16.1167 23.7667 15.9 24.8 15.9C24.9667 15.9 25.1333 15.9 25.3 15.9C25.5 15.9 25.6833 15.9167 25.85 15.95C26.6167 16.0167 27.45 16.2667 28.35 16.7C29.2833 17.1 30.0833 17.7 30.75 18.5C30.95 18.7333 31.05 18.9 31.05 19C31.05 19.0667 31.0167 19.1 30.95 19.1C30.8833 19.1 30.7167 19 30.45 18.8C29.2833 17.5667 27.95 16.9 26.45 16.8C26.3167 16.7667 26.1667 16.75 26 16.75C25.8333 16.75 25.65 16.75 25.45 16.75C24.6833 16.75 23.8667 16.9333 23 17.3C22.1333 17.6333 21.5 18.3333 21.1 19.4C20.9667 19.7333 20.8667 20.0667 20.8 20.4C20.7333 20.7333 20.7 21.05 20.7 21.35C20.7 22.4833 21.1167 23.4667 21.95 24.3C22.7833 25.1333 23.9 25.8 25.3 26.3C26.7 26.8 28.2333 27.1333 29.9 27.3C30 25.9333 30.4167 24.6 31.15 23.3C31.9167 21.9667 32.9 20.7667 34.1 19.7C35.3333 18.6 36.7 17.7333 38.2 17.1C39.7333 16.4333 41.3167 16.1 42.95 16.1C43.1167 16.1 43.3 16.1 43.5 16.1C43.7 16.1 43.9 16.1167 44.1 16.15C45.1667 16.25 46.0833 16.55 46.85 17.05C47.65 17.5167 48.05 18.2167 48.05 19.15C48.05 19.4167 48 19.7333 47.9 20.1C47.4667 21.5 46.6667 22.7167 45.5 23.75C44.3333 24.75 42.95 25.5667 41.35 26.2C39.7833 26.8333 38.15 27.3167 36.45 27.65C34.75 27.95 33.1667 28.1 31.7 28.1H31.1L30.85 29.1C32.15 29.0333 33.2333 29.25 34.1 29.75C34.3667 29.9167 34.5 30.1 34.5 30.3C34.3333 30.6667 33.85 30.85 33.05 30.85C32.1167 30.85 31.4 30.7 30.9 30.4C30.4333 30.1 30.15 29.7333 30.05 29.3C28.7167 29.5 27.3833 29.9833 26.05 30.75C24.75 31.5167 23.55 32.4667 22.45 33.6C21.35 34.7333 20.4167 35.9667 19.65 37.3C18.9167 38.6333 18.45 39.9667 18.25 41.3C18.2167 41.6 18.1667 41.9 18.1 42.2C18.0667 42.5 18.05 42.7833 18.05 43.05C18.05 44.05 18.35 44.85 18.95 45.45C19.55 46.0833 20.6667 46.4 22.3 46.4C23.7667 46.4 25.2667 46.0333 26.8 45.3C28.3667 44.5667 29.8167 43.6167 31.15 42.45C32.5167 41.25 33.6667 39.9667 34.6 38.6C35.5333 37.2333 36.1 35.9333 36.3 34.7C36.3 34.6333 36.3 34.5667 36.3 34.5C36.3333 34.4 36.35 34.3333 36.35 34.3C36.35 33.8667 36.2167 33.5167 35.95 33.25C35.6833 32.95 35.25 32.8 34.65 32.8C34.5167 32.8 34.3833 32.8167 34.25 32.85C34.1167 32.85 33.9667 32.8667 33.8 32.9C32.8667 33.0667 31.8 33.55 30.6 34.35C29.4 35.15 28.2667 36.15 27.2 37.35C26.1667 38.5167 25.3833 39.7667 24.85 41.1C24.7167 41.1667 24.6333 41.2 24.6 41.2C24.4333 41.2 24.4 40.9833 24.5 40.55C24.8333 39.65 25.3667 38.7 26.1 37.7C26.8667 36.6667 27.75 35.7167 28.75 34.85C29.7833 33.95 30.9 33.2167 32.1 32.65C33.3 32.0833 34.5167 31.8 35.75 31.8C36.7167 31.8 37.4167 32.0167 37.85 32.45C38.2833 32.85 38.5 33.3833 38.5 34.05C38.5 35.05 38.1 36.15 37.3 37.35C36.6667 38.35 35.7667 39.4167 34.6 40.55C33.4667 41.6833 32.1833 42.7667 30.75 43.8C29.3167 44.8333 27.8167 45.6667 26.25 46.3C24.6833 46.9667 23.15 47.3 21.65 47.3ZM31.4 27.4H31.75C33.45 27.4 35.1167 27.2167 36.75 26.85C38.4167 26.4833 39.95 25.9667 41.35 25.3C42.75 24.6333 43.9167 23.8333 44.85 22.9C45.8167 21.9667 46.4333 20.9333 46.7 19.8C46.7333 19.6667 46.75 19.4833 46.75 19.25C46.75 18.75 46.5333 18.3167 46.1 17.95C45.6667 17.5833 44.8167 17.4 43.55 17.4C42.4833 17.4 41.2333 17.7333 39.8 18.4C38.3667 19.0667 36.9167 20.0833 35.45 21.45C34.5167 22.3167 33.7 23.3 33 24.4C32.3 25.4667 31.7667 26.4667 31.4 27.4Z" fill="white"/>
<defs>
<linearGradient id="paint0_linear_202_4" x1="-1.78814e-08" y1="21.5" x2="45.5" y2="52" gradientUnits="userSpaceOnUse">
<stop stop-color="#A445B2"/>
<stop offset="1" stop-color="#FA4299" stop-opacity="0.37"/>
</linearGradient>
</defs>
</svg>
